<?xml version="1.0" encoding="UTF-8" standalone="no"?>
<svg
   xml:space="preserve"
   width="1000"
   height="160"
   version="1.1"
   id="svg22"
   xmlns="http://www.w3.org/2000/svg"
   xmlns:svg="http://www.w3.org/2000/svg"><defs
     id="defs26" /><g
     stroke-linecap="square"
     stroke-miterlimit="0"
     stroke-width="23.9"
     id="g20"><g
       fill="#262525"
       aria-label="FRANKLY WEB"
       font-family="Comfortaa"
       font-size="201.4px"
       style="-inkscape-font-specification:'Comfortaa, @wght=500';font-variation-settings:'wght' 500;stroke-width:34.864"
       id="g18"
       transform="matrix(0.68552138,0,0,0.68552138,-17.517228,-0.89152284)"><path
         fill="#f8f9fa"
         d="m 1547,546 q -5,0 -8,-3 -3,-3 -3,-8 V 399 q 0,-5 3,-7 3,-3 8,-3 h 48 q 13,0 24,5 10,5 16,15 6,9 6,21 0,10 -5,18 -6,8 -15,13 13,3 21,13 8,9 8,24 0,14 -6,25 -7,11 -18,17 -12,6 -27,6 z m 10,-19 h 42 q 9,0 16,-4 7,-3 11,-9 4,-6 4,-16 0,-8 -4,-14 -4,-6 -11,-8 -7,-3 -16,-3 h -42 z m 0,-74 h 38 q 11,0 18,-5 8,-6 8,-18 0,-11 -8,-16 -7,-6 -18,-6 h -38 z m -151,93 q -5,0 -8,-3 -3,-3 -3,-8 V 399 q 0,-5 3,-7 3,-3 8,-3 h 91 q 4,0 7,2 3,3 3,7 0,5 -3,7 -3,3 -7,3 h -81 v 49 h 58 q 4,0 7,3 3,2 3,7 0,4 -3,7 -3,2 -7,2 h -58 v 51 h 81 q 4,0 7,2 3,3 3,7 0,4 -3,7 -3,3 -7,3 z m -166,0 q -4,0 -7,-2 l -4,-6 -40,-135 q -2,-7 0,-10 2,-4 8,-4 l 6,2 q 3,1 4,5 l 35,123 h -4 l 32,-121 q 1,-3 4,-5 l 6,-2 6,1 q 3,2 4,5 l 33,122 h -4 l 35,-124 q 2,-6 11,-6 5,0 7,4 2,4 0,10 l -41,134 q -1,4 -4,7 -2,2 -6,2 -4,0 -7,-3 l -3,-5 -33,-126 h 5 l -33,125 q -1,4 -4,7 z m -181,0 q -4,0 -7,-3 -3,-3 -3,-8 v -47 l -54,-83 -2,-8 q 1,-4 4,-6 3,-2 7,-2 l 5,1 4,4 51,82 h -8 l 52,-82 4,-4 5,-1 q 4,0 6,2 3,3 3,6 l -2,8 -54,83 v 47 q 0,5 -3,8 -3,3 -8,3 z m -140,0 q -4,0 -7,-3 -3,-3 -3,-8 V 399 q 0,-4 3,-7 3,-3 7,-3 5,0 8,3 3,3 3,7 v 126 h 73 q 4,0 7,3 3,3 3,7 0,5 -3,8 -3,3 -7,3 z m -134,0 q -4,0 -7,-3 -3,-3 -3,-8 V 399 q 0,-4 3,-7 3,-3 7,-3 5,0 8,3 3,3 3,7 v 60 l 66,-66 q 3,-3 5,-3 l 4,-1 q 5,0 7,3 3,3 2,7 -1,4 -4,7 l -51,52 52,71 q 3,4 2,8 0,3 -3,6 -2,3 -6,3 -6,0 -9,-5 l -51,-69 -14,15 v 48 q 0,5 -3,8 -3,3 -8,3 z m -167,0 q -4,0 -7,-3 -3,-3 -3,-8 V 399 q 0,-5 3,-7 3,-3 7,-3 5,0 8,3 l 88,117 V 399 q 0,-5 3,-7 3,-3 7,-3 5,0 8,3 3,2 3,7 v 136 q 0,5 -3,8 -3,3 -8,3 l -4,-1 -4,-3 -87,-117 v 110 q 0,5 -4,8 -2,3 -7,3 z"
         style="-inkscape-font-specification:'Comfortaa, @wght=700';font-variation-settings:'wght' 700;stroke-width:50.6033"
         transform="matrix(1.001,0,0,0.996,-171,-347)"
         id="path6" /><g
         fill="none"
         stroke="#2c3e50"
         stroke-linecap="round"
         stroke-linejoin="round"
         stroke-width="2.18812"
         style="-inkscape-font-specification:'Comfortaa, @wght=500';font-variation-settings:'wght' 500"
         id="g14"><path
           stroke="none"
           d="M 247,5 H 456 V 231 H 247 Z"
           id="path8"
           style="stroke-width:3.17594" /><path
           style="color:#000000;-inkscape-font-specification:'Comfortaa, @wght=500';fill:#f88e0c;stroke:none;stroke-width:2.18812;stroke-miterlimit:0"
           d="M 36.792969,0.84375 C 35.927606,0.760147 35.041106,0.7993873 34.150391,0.98828125 L 35,0.90039063 H 6 -4.8964844 -5 a 4.0999999,4.0999999 0 0 0 -0.083984,0.0351563 c -4.2654857,0.004416 -7.3317,3.53496277 -7.962891,7.40429687 A 4.1004099,4.1004099 0 0 0 -13.099609,9 v 68 c 0,4.534063 3.1207195,9.099609 8.099609,9.099609 H 1.9003906 V 92 A 4.0999999,4.0999999 0 0 0 6,96.099609 4.0999999,4.0999999 0 0 0 10.099609,92 V 86.099609 H 35 l -0.828125,-0.08398 c 3.794407,0.782688 7.465163,-1.109286 9.638672,-3.826172 2.173509,-2.716886 3.317226,-6.299172 3.289062,-10.21875 V 14 a 4.1004099,4.1004099 0 0 0 -0.0078,-0.255859 C 46.86178,10.073372 45.613261,6.7736589 43.423828,4.3105469 41.781753,2.4632128 39.389058,1.0945589 36.792969,0.84375 Z m -0.94336,8.1679688 c 0.419274,-0.088915 0.720018,-0.06791 1.445313,0.7480468 0.720339,0.8103814 1.4689,2.4215164 1.605469,4.4589844 V 72 a 4.1004099,4.1004099 0 0 0 0,0.0293 c 0.0159,2.213049 -0.716934,4.068042 -1.492188,5.037109 -0.775253,0.969067 -1.125485,1.01174 -1.580078,0.917969 A 4.1004099,4.1004099 0 0 0 35,77.900391 H 10.099609 V 9.0996094 H 35 a 4.1004099,4.1004099 0 0 0 0.849609,-0.087891 z M -5.0507812,9.078125 a 4.0999999,4.0999999 0 0 0 0.039063,0.017578 c -0.045462,0.00533 -0.017527,0.00578 -0.091797,0.00391 a 4.0999999,4.0999999 0 0 0 0.052734,-0.021484 z m 0.2578125,0.021484 H 1.9003906 V 77.900391 H -5 c 0.560616,0 0.099609,0.08839 0.099609,-0.900391 V 9.4746094 c 0.045749,-0.1614821 0.09827,-0.3463301 0.1074223,-0.3750004 z"
           id="path10"
           transform="matrix(1.835,0,0,1.826,324,43)" /><path
           style="color:#000000;-inkscape-font-specification:'Comfortaa, @wght=500';fill:#f88e0c;stroke:none;stroke-width:2.18812;stroke-miterlimit:0;-inkscape-stroke:none"
           d="M 21,21.25 A 2.75,2.75 0 0 0 18.25,24 2.75,2.75 0 0 0 21,26.75 h 7 A 2.75,2.75 0 0 0 30.75,24 2.75,2.75 0 0 0 28,21.25 Z m 0,19 A 2.75,2.75 0 0 0 18.25,43 2.75,2.75 0 0 0 21,45.75 h 7 A 2.75,2.75 0 0 0 30.75,43 2.75,2.75 0 0 0 28,40.25 Z"
           id="path12"
           transform="matrix(1.835,0,0,1.826,324,43)" /></g><path
         fill="#f8f9fa"
         d="m 349,389 c -3,0 -5,1 -7,3 -2,2 -3,4 -3,7 v 136 c 0,3 1,6 3,8 2,2 4,3 7,3 3,0 6,-1 8,-3 2,-2 3,-5 3,-8 V 408 h 26 c 6,0 11,1 16,4 5,2 8,6 11,10 a 30,30 0 0 1 0,31 l -5,5 c -3,3 -9,6 -14,7 -9,2 -11,10 -3,22 l 19,31 14,23 4,4 5,1 c 4,0 7,-2 9,-5 2,-4 1,-7 -1,-11 l -31,-50 2,-1 a 45,45 0 0 0 25,-41 c 0,-10 -2,-18 -6,-26 A 55,55 0 0 0 386,388 Z M 211,546 q -5,0 -8,-3 -3,-3 -3,-8 V 399 q 0,-5 3,-7 3,-3 8,-3 h 91 q 5,0 7,2 3,3 3,7 0,5 -3,7 -2,3 -7,3 h -81 v 49 h 58 q 5,0 8,3 2,2 2,7 0,4 -2,7 -3,2 -8,2 h -58 v 59 q 0,5 -3,8 -3,3 -7,3 z"
         style="-inkscape-font-specification:'Comfortaa, @wght=700';font-variation-settings:'wght' 700;stroke-width:50.6033"
         transform="matrix(1.001,0,0,0.996,-171,-347)"
         id="path16" /></g></g></svg>
