<?xml version="1.0" standalone="no"?>
<!DOCTYPE svg PUBLIC "-//W3C//DTD SVG 20010904//EN"
 "http://www.w3.org/TR/2001/REC-SVG-20010904/DTD/svg10.dtd">
<svg version="1.0" xmlns="http://www.w3.org/2000/svg"
 width="700.000000pt" height="700.000000pt" viewBox="0 0 700.000000 700.000000"
 preserveAspectRatio="xMidYMid meet">
<metadata>
Created by potrace 1.14, written by Peter Selinger 2001-2017
</metadata>
<g transform="translate(0.000000,700.000000) scale(0.100000,-0.100000)"
fill="#000000" stroke="none">
<path d="M0 3500 l0 -3500 3500 0 3500 0 0 3500 0 3500 -3500 0 -3500 0 0
-3500z m4503 2190 c169 -52 293 -191 359 -400 l23 -75 0 -1480 0 -1480 -23
-75 c-57 -181 -155 -306 -298 -376 l-78 -39 -657 -3 -658 -3 -3 -168 c-3 -164
-4 -169 -31 -209 -72 -109 -238 -109 -313 0 -29 41 -29 43 -32 209 l-4 168
-202 3 -202 3 -65 32 c-111 55 -194 169 -219 302 -6 35 -10 606 -10 1650 0
1411 2 1604 16 1656 26 103 98 203 178 250 94 55 70 54 1152 54 976 1 1004 0
1067 -19z"/>
<path d="M2475 5318 c-3 -7 -4 -722 -3 -1588 l3 -1575 158 -3 157 -3 0 1591 0
1590 -155 0 c-115 0 -157 -3 -160 -12z"/>
<path d="M3773 5323 l-603 -3 0 -1590 0 -1590 615 0 616 0 25 25 c14 14 37 51
52 83 l27 57 3 1410 c2 1381 2 1411 -17 1475 -22 71 -73 141 -99 138 -9 -2
-288 -4 -619 -5z m296 -581 c37 -20 71 -73 71 -110 0 -36 -28 -89 -58 -109
-23 -15 -54 -18 -218 -21 -154 -3 -198 -1 -227 12 -70 29 -97 117 -57 184 33
55 63 61 270 62 161 0 190 -2 219 -18z m-4 -876 c98 -41 97 -184 -2 -228 -40
-18 -64 -19 -231 -16 -164 3 -190 5 -215 22 -81 55 -72 183 16 221 46 20 384
21 432 1z"/>
</g>
</svg>
