<?xml version="1.0" encoding="UTF-8"?>
<svg width="500" height="500" version="1.1" xml:space="preserve" xmlns="http://www.w3.org/2000/svg"><g font-family="Comfortaa" font-size="201px" stroke-linecap="square" stroke-miterlimit="0" stroke-width="23.9" style="font-variation-settings:'wght' 500" aria-label="FRANKLY WEB"><rect transform="translate(4.26,-7.85)" x="-25.2" y="-9.43" width="535" height="534" fill="#1a1a1a" style="font-variation-settings:'wght' 401"/><g transform="translate(4.26,-7.85)" fill="#e2b66f" stroke-linecap="round" stroke-linejoin="round" stroke-width="1.5" style="font-variation-settings:'wght' 500"><path d="m311 100c-2.87-0.275-5.81-0.142-8.76 0.481l2.81-0.293h-133a13.6 13.6 0 0 0-0.103 0.0424c-14.2-0.103-24.5 11.7-26.6 24.6a13.6 13.6 0 0 0-0.18 2.2v225c0 15 10.4 30.1 26.9 30.1h23v19.5a13.6 13.6 0 0 0 13.6 13.6 13.6 13.6 0 0 0 13.6-13.6v-19.5h82.8l-2.73-0.279c12.6 2.58 24.7-3.65 32-12.6 7.22-8.99 11-20.9 10.9-33.8v-192a13.6 13.6 0 0 0-0.0248-0.852c-0.765-12.2-4.93-23.1-12.2-31.2-5.46-6.11-13.4-10.6-22-11.5zm-3.15 27.1c1.43-0.301 2.45-0.209 4.86 2.49 2.39 2.68 4.87 7.98 5.32 14.7v191a13.6 13.6 0 0 0 0 0.099c0.0527 7.3-2.37 13.4-4.94 16.6s-3.77 3.36-5.31 3.04a13.6 13.6 0 0 0-2.73-0.276h-82.8v-227h82.8a13.6 13.6 0 0 0 2.8-0.294zm-136 0.223a13.6 13.6 0 0 0 0.127 0.0495c-0.146 0.0176-0.0557 0.0202-0.297 0.0141a13.6 13.6 0 0 0 0.17-0.0637zm0.82 0.0707h22.3v227h-23c1.79 0 0.297 0.283 0.297-2.94v-223c0.148-0.519 0.319-1.12 0.35-1.22z" color="#000000" style="-inkscape-stroke:none"/><path d="m259 168a9.11 9.11 0 0 0-9.11 9.11 9.11 9.11 0 0 0 9.11 9.12h23.3a9.11 9.11 0 0 0 9.11-9.12 9.11 9.11 0 0 0-9.11-9.11zm0 62.8a9.11 9.11 0 0 0-9.11 9.12 9.11 9.11 0 0 0 9.11 9.11h23.3a9.11 9.11 0 0 0 9.11-9.11 9.11 9.11 0 0 0-9.11-9.12z" color="#000000" style="-inkscape-stroke:none"/></g></g></svg>
