<svg xmlns="http://www.w3.org/2000/svg" xml:space="preserve" width="1510" height="287"><g fill="#262525" stroke-linecap="square" stroke-miterlimit="0" stroke-width="23.9" aria-label="FRANKLY WEB" font-family="Comfortaa" font-size="201.4" style="-inkscape-font-specification:&quot;Comfortaa, @wght=500&quot;;font-variation-settings:&quot;wght&quot;500"><path fill="#252422" d="M1547 546q-5 0-8-3t-3-8V399q0-5 3-7 3-3 8-3h48q13 0 24 5 10 5 16 15 6 9 6 21 0 10-5 18-6 8-15 13 13 3 21 13 8 9 8 24 0 14-6 25-7 11-18 17-12 6-27 6zm10-19h42q9 0 16-4 7-3 11-9t4-16q0-8-4-14t-11-8q-7-3-16-3h-42zm0-74h38q11 0 18-5 8-6 8-18 0-11-8-16-7-6-18-6h-38zm-151 93q-5 0-8-3t-3-8V399q0-5 3-7 3-3 8-3h91q4 0 7 2 3 3 3 7 0 5-3 7-3 3-7 3h-81v49h58q4 0 7 3 3 2 3 7 0 4-3 7-3 2-7 2h-58v51h81q4 0 7 2 3 3 3 7t-3 7q-3 3-7 3zm-166 0q-4 0-7-2l-4-6-40-135q-2-7 0-10 2-4 8-4l6 2q3 1 4 5l35 123h-4l32-121q1-3 4-5l6-2 6 1q3 2 4 5l33 122h-4l35-124q2-6 11-6 5 0 7 4t0 10l-41 134q-1 4-4 7-2 2-6 2t-7-3l-3-5-33-126h5l-33 125q-1 4-4 7l-6 2zm-181 0q-4 0-7-3t-3-8v-47l-54-83-2-8q1-4 4-6t7-2l5 1 4 4 51 82h-8l52-82 4-4 5-1q4 0 6 2 3 3 3 6l-2 8-54 83v47q0 5-3 8t-8 3zm-140 0q-4 0-7-3t-3-8V399q0-4 3-7t7-3q5 0 8 3t3 7v126h73q4 0 7 3t3 7q0 5-3 8t-7 3zm-134 0q-4 0-7-3t-3-8V399q0-4 3-7t7-3q5 0 8 3t3 7v60l66-66q3-3 5-3l4-1q5 0 7 3 3 3 2 7t-4 7l-51 52 52 71q3 4 2 8 0 3-3 6-2 3-6 3-6 0-9-5l-51-69-14 15v48q0 5-3 8t-8 3zm-167 0q-4 0-7-3t-3-8V399q0-5 3-7 3-3 7-3 5 0 8 3l88 117V399q0-5 3-7 3-3 7-3 5 0 8 3 3 2 3 7v136q0 5-3 8t-8 3l-4-1-4-3-87-117v110q0 5-4 8-2 3-7 3z" style="-inkscape-font-specification:&quot;Comfortaa, @wght=700&quot;;font-variation-settings:&quot;wght&quot;700" transform="matrix(1.001 0 0 .996 -171 -321)"/><g fill="none" stroke="#2c3e50" stroke-linecap="round" stroke-linejoin="round" stroke-width="1.5" style="-inkscape-font-specification:&quot;Comfortaa, @wght=500&quot;;font-variation-settings:&quot;wght&quot;500"><path stroke="none" d="M247 30h209v227H247Z"/><path stroke="#e2b66f" stroke-width="8.2" d="M-5 5h40a7 10 0 0 1 8 9v58a7 10 0 0 1-8 10H-5a4 5 0 0 1-4-5V9a4 5 0 0 1 4-4M6 5v87" transform="matrix(1.835 0 0 1.826 324 68)"/><path stroke="#e2b66f" stroke-width="5.5" d="M21 24h7m-7 19h7" transform="matrix(1.835 0 0 1.826 324 68)"/></g><path fill="#252422" d="M349 389c-3 0-5 1-7 3s-3 4-3 7v136c0 3 1 6 3 8s4 3 7 3 6-1 8-3 3-5 3-8V408h26c6 0 11 1 16 4 5 2 8 6 11 10a30 30 0 0 1 0 31l-5 5c-3 3-9 6-14 7-9 2-11 10-3 22l19 31 14 23 4 4 5 1c4 0 7-2 9-5 2-4 1-7-1-11l-31-50 2-1a45 45 0 0 0 25-41c0-10-2-18-6-26a55 55 0 0 0-45-24zM211 546q-5 0-8-3t-3-8V399q0-5 3-7 3-3 8-3h91q5 0 7 2 3 3 3 7 0 5-3 7-2 3-7 3h-81v49h58q5 0 8 3 2 2 2 7 0 4-2 7-3 2-8 2h-58v59q0 5-3 8t-7 3z" style="-inkscape-font-specification:&quot;Comfortaa, @wght=700&quot;;font-variation-settings:&quot;wght&quot;700" transform="matrix(1.001 0 0 .996 -171 -321)"/></g></svg>