<svg xmlns="http://www.w3.org/2000/svg" xml:space="preserve" width="1510" height="365"><g stroke-linecap="square" stroke-miterlimit="0" stroke-width="23.9"><g style="-inkscape-font-specification:&quot;Comfortaa, @wght=700&quot;;font-variation-settings:&quot;wght&quot;700"><path fill="#f8f9fa" d="M210 694v-52h32v5h-26v18h23v6h-23v23zm42 0v-36l3-1 7-2 8-1 1 1h1v5h-11l-4 1v33zm42 1q-9 0-13-5-5-6-5-15 0-10 5-16 5-5 13-5 7 0 10 3 4 2 6 7t2 11q0 9-4 15-5 5-14 5zm0-5q5 0 8-2l3-6q2-3 2-7 0-5-2-8l-3-6-8-1q-4 0-7 2t-4 5l-1 8q0 7 3 11 2 4 9 4zm61-21v25h-6v-28l-2-3-3-3-5-1-5 1-6 1v33h-5v-36l4-1 4-2h4l4-1q6 0 9 2 4 2 5 5 2 3 2 8zm-8-9 5-3 6-2 6-1q5 0 9 2l5 5 1 8v25h-5v-25l-1-3-1-3-3-3-6-1-5 1-5 3zm84 35-7-1-6-3-4-6q-2-4-2-10 0-7 2-11l4-6 6-3 7-1 5 1 6 2v5l-5-2h-6q-7 0-10 3-3 4-3 12 0 7 3 11 3 3 10 3h6l5-2v6l-6 1-5 1zm38 0q-9 0-14-5-4-6-4-15 0-10 4-16 5-5 13-5 7 0 11 3 4 2 6 7t2 11q0 9-5 15-5 5-13 5zm0-5q4 0 7-2t4-6l1-7-1-8q-1-4-4-6l-7-1q-5 0-8 2l-4 5-1 8q0 7 3 11t10 4zm44 5-6-1q-3 0-6-3l-4-6q-2-4-2-11 0-9 4-14 5-6 14-6l4 1 5 1 3 2-2 2v-21h6v48q0 3-2 4-1 2-4 2l-5 2h-5zm0-5 7-1 3-2v-25l-5-2h-5q-4 0-7 2-3 1-4 5l-1 7 1 8q1 4 4 6 2 2 7 2zm44 5q-5 0-9-2t-6-7q-3-5-3-11 0-11 5-16t13-5q6 0 10 3l5 8q2 5 2 11h-32l1-6h27l-2 1-3-9q-3-2-8-2l-7 1-4 5-1 10q0 7 3 10 4 4 10 4h5l5-2 3-1v5l-6 3h-8zm62 0q-4 0-7-3-3-2-3-7v-25h-7v-5h7v-11h6v11h10v5h-10v23l1 5 4 1h3l2-1v6h-3l-3 1zm32 0q-9 0-14-5-4-6-4-15 0-10 5-16 4-5 13-5 6 0 10 3 4 2 6 7t2 11q0 9-5 15-4 5-13 5zm0-5q5 0 7-2 3-2 4-6l1-7-1-8q-1-4-4-6l-7-1q-5 0-7 2-3 2-4 5l-1 8q0 7 2 11 3 4 10 4zm67 5-6-1-6-3q-3-2-4-6-2-4-2-10 0-7 2-11 1-4 4-6l6-3 6-1 6 1 6 2v5l-5-2h-6q-7 0-10 3-3 4-3 12 0 7 3 11 3 3 10 3h6l5-2v6l-6 1-6 1zm22-1v-36l4-1 7-2 7-1 2 1h1v5h-11l-4 1v33zm43 1q-5 0-9-2t-7-7q-2-5-2-11 0-11 5-16 4-5 12-5 7 0 10 3 4 3 6 8l1 11h-31v-6h28l-3 1q0-6-3-9-2-2-8-2l-6 1q-3 1-4 5l-1 10q0 7 3 10 4 4 10 4h5l4-2 4-1v5l-6 3h-8zm40 0h-5l-5-2-3-4q-2-2-2-6t2-7l5-5 8-1h5l4 2 4 1 1 5-5-2-8-1q-5 0-7 2-3 2-3 5l1 5 4 3h13q3-1 3-4v-18q0-4-3-6-2-3-7-3l-7 1-6 3v-5q2-2 7-3l7-1 5 1 4 1 3 3 2 3 1 5v19q0 4-3 6l-6 3h-9zm42 0q-4 0-7-3-2-2-2-7v-25h-7v-5h7v-11h5v11h10v5h-10v23l1 5 4 1h3l2-1v6h-3l-3 1zm17-1v-39h5v39zm-1-46v-6h7v6zm32 46-16-39h6l14 34-1 1 14-35h5l-16 39zm32 0v-39h5v39zm-1-46v-6h6v6zm31 47q-4 0-7-3-3-2-3-7v-25h-6v-5h6v-11h6v11h10v5h-10v23l1 5 4 1h3l2-1v6h-3l-3 1zm20 14h-2l-1-1v-5l1 1h2q3 0 4-2l3-4 2-5v2l-16-40h6l13 33h-1l13-33h5l-16 43-4 7-5 3-4 1zm45-44v-6h6v6zm0 25v-6h6v6zm47 4v-52h6l19 30h-4l21-30h6v52h-6v-46h3l-22 30-19-30 2-3v49zm65 15h-2l-2-1v-5l2 1h2l4-2 3-4 2-5v2l-17-40h7l13 33h-2l13-33h6l-17 43-4 7-4 3-4 1zm77-14-6-1q-3 0-6-3-3-2-5-6l-1-11q0-9 4-14 4-6 13-6l4 1 5 1 4 2-2 2v-21h5v48l-1 4-4 2-5 2h-5zm0-5 7-1 3-2v-25l-5-2h-6q-4 0-6 2-3 1-4 5l-1 7v8q1 4 4 6t8 2zm28 4v-39h6v39zm0-46v-6h6v6zm34 47q-6 0-9-2-4-3-6-7t-2-10q0-7 2-11 1-4 4-7l6-3 7-1q4 0 7 2 3 0 5 3 3 2 3 5v32l-1 4-3 5-5 3-8 1h-7l-4-1v-6l2 1 4 1h4l8-1 3-3 1-4v-6l2 2-4 2-4 1h-5zm0-5 6-1q3 0 5-2v-22l-1-3q-1-2-3-2h-5q-6 0-8 2-3 2-4 6l-1 8q0 6 2 10 3 4 9 4zm29 4v-39h6v39zm0-46v-6h6v6zm31 47q-4 0-7-3-3-2-3-7v-25h-7v-5h7v-11h6v11h10v5h-10v23l1 5 4 1h3l2-1v6h-3l-3 1zm30 0h-6l-5-2-3-4-1-6 1-7 5-5 8-1h5l5 2 3 1 1 5-5-2-8-1q-5 0-7 2-3 2-3 5t2 5l4 3h12q3-1 3-4v-18q0-4-3-6-2-3-7-3l-7 1-6 3v-5l7-3 8-1 4 1 4 1 3 3q2 1 2 3l1 5v19q0 4-3 6l-6 3h-8zm35-1h-6v-54h6zm30 15v-5l5-1 2-3 1-4v-41h5v41l-1 7-5 5-7 1zm7-61v-6h6v6zm35 47q-9 0-14-5-4-6-4-15 0-10 5-16 4-5 13-5 6 0 10 3 4 2 6 7t2 11q0 9-5 15-4 5-13 5zm0-5q5 0 7-2 3-2 4-6l1-7-1-8q-1-4-4-6l-7-1q-5 0-7 2-3 2-4 5l-1 8q0 7 2 11 3 4 10 4zm45 5q-5 0-9-2-4-1-6-5-2-3-2-8v-25h6v24q0 5 3 8 2 3 8 3 5 0 8-3 2-3 2-8v-24h6v25q0 7-4 11-5 4-12 4zm28-1v-36l4-1 7-2 7-1 2 1h1v5h-11l-4 1v33zm30-36 4-1 4-2h4l4-1q6 0 9 2 4 2 5 5 2 3 2 8v25h-6v-28l-2-3-3-3-5-1-5 1-6 1v33h-5zm60 37q-5 0-9-2t-7-7q-2-5-2-11 0-11 5-16 4-5 12-5 7 0 10 3 4 3 6 8l1 11h-31v-6h28l-2 1-3-9q-3-2-9-2l-6 1q-3 1-4 5l-1 10q0 7 3 10 4 4 10 4h5l4-2 4-1v5l-6 3h-8zm28 14h-2l-1-1v-5l1 1h2q3 0 4-2l3-4 2-5v2l-16-40h6l13 33h-1l13-33h5l-16 43-4 7-5 3-4 1z" aria-label="From code to creativity: My digital journey" font-family="Maven Pro" font-size="78" style="-inkscape-font-specification:&quot;Maven Pro, @wght=401&quot;;font-variation-settings:&quot;wght&quot;401" transform="matrix(1.001 0 0 .996 -205 -347)"/></g><g fill="#262525" aria-label="FRANKLY WEB" font-family="Comfortaa" font-size="201.4" style="-inkscape-font-specification:&quot;Comfortaa, @wght=500&quot;;font-variation-settings:&quot;wght&quot;500"><path fill="#f8f9fa" d="M1547 546q-5 0-8-3t-3-8V399q0-5 3-7 3-3 8-3h48q13 0 24 5 10 5 16 15 6 9 6 21 0 10-5 18-6 8-15 13 13 3 21 13 8 9 8 24 0 14-6 25-7 11-18 17-12 6-27 6zm10-19h42q9 0 16-4 7-3 11-9t4-16q0-8-4-14t-11-8q-7-3-16-3h-42zm0-74h38q11 0 18-5 8-6 8-18 0-11-8-16-7-6-18-6h-38zm-151 93q-5 0-8-3t-3-8V399q0-5 3-7 3-3 8-3h91q4 0 7 2 3 3 3 7 0 5-3 7-3 3-7 3h-81v49h58q4 0 7 3 3 2 3 7 0 4-3 7-3 2-7 2h-58v51h81q4 0 7 2 3 3 3 7t-3 7q-3 3-7 3zm-166 0q-4 0-7-2l-4-6-40-135q-2-7 0-10 2-4 8-4l6 2q3 1 4 5l35 123h-4l32-121q1-3 4-5l6-2 6 1q3 2 4 5l33 122h-4l35-124q2-6 11-6 5 0 7 4t0 10l-41 134q-1 4-4 7-2 2-6 2t-7-3l-3-5-33-126h5l-33 125q-1 4-4 7l-6 2zm-181 0q-4 0-7-3t-3-8v-47l-54-83-2-8q1-4 4-6t7-2l5 1 4 4 51 82h-8l52-82 4-4 5-1q4 0 6 2 3 3 3 6l-2 8-54 83v47q0 5-3 8t-8 3zm-140 0q-4 0-7-3t-3-8V399q0-4 3-7t7-3q5 0 8 3t3 7v126h73q4 0 7 3t3 7q0 5-3 8t-7 3zm-134 0q-4 0-7-3t-3-8V399q0-4 3-7t7-3q5 0 8 3t3 7v60l66-66q3-3 5-3l4-1q5 0 7 3 3 3 2 7t-4 7l-51 52 52 71q3 4 2 8 0 3-3 6-2 3-6 3-6 0-9-5l-51-69-14 15v48q0 5-3 8t-8 3zm-167 0q-4 0-7-3t-3-8V399q0-5 3-7 3-3 7-3 5 0 8 3l88 117V399q0-5 3-7 3-3 7-3 5 0 8 3 3 2 3 7v136q0 5-3 8t-8 3l-4-1-4-3-87-117v110q0 5-4 8-2 3-7 3z" style="-inkscape-font-specification:&quot;Comfortaa, @wght=700&quot;;font-variation-settings:&quot;wght&quot;700" transform="matrix(1.001 0 0 .996 -171 -347)"/><g fill="none" stroke="#2c3e50" stroke-linecap="round" stroke-linejoin="round" stroke-width="1.5" style="-inkscape-font-specification:&quot;Comfortaa, @wght=500&quot;;font-variation-settings:&quot;wght&quot;500"><path stroke="none" d="M247 5h209v226H247Z"/><path stroke="#e2b66f" stroke-width="8.2" d="M-5 5h40a7 10 0 0 1 8 9v58a7 10 0 0 1-8 10H-5a4 5 0 0 1-4-5V9a4 5 0 0 1 4-4M6 5v87" transform="matrix(1.835 0 0 1.826 324 43)"/><path stroke="#e2b66f" stroke-width="5.5" d="M21 24h7m-7 19h7" transform="matrix(1.835 0 0 1.826 324 43)"/></g><path fill="#f8f9fa" d="M349 389c-3 0-5 1-7 3s-3 4-3 7v136c0 3 1 6 3 8s4 3 7 3 6-1 8-3 3-5 3-8V408h26c6 0 11 1 16 4 5 2 8 6 11 10a30 30 0 0 1 0 31l-5 5c-3 3-9 6-14 7-9 2-11 10-3 22l19 31 14 23 4 4 5 1c4 0 7-2 9-5 2-4 1-7-1-11l-31-50 2-1a45 45 0 0 0 25-41c0-10-2-18-6-26a55 55 0 0 0-45-24zM211 546q-5 0-8-3t-3-8V399q0-5 3-7 3-3 8-3h91q5 0 7 2 3 3 3 7 0 5-3 7-2 3-7 3h-81v49h58q5 0 8 3 2 2 2 7 0 4-2 7-3 2-8 2h-58v59q0 5-3 8t-7 3z" style="-inkscape-font-specification:&quot;Comfortaa, @wght=700&quot;;font-variation-settings:&quot;wght&quot;700" transform="matrix(1.001 0 0 .996 -171 -347)"/></g></g></svg>